<svg xmlns="http://www.w3.org/2000/svg" viewBox="0 0 16 16">
 <defs id="defs3051">
  <style type="text/css" id="current-color-scheme">
   .ColorScheme-Text {
    color:#4d4d4d;
   }
  </style>
 </defs>
 <path class="ColorScheme-Text"
       style="fill:currentColor;fill-opacity:1;stroke:none"
       d="M 7 3 L 7 4.1308594 A 4 4 0 0 0 5.1484375 5.1992188 L 4.1699219 4.6347656 L 3.1699219 6.3652344 L 4.1484375 6.9296875 A 4 4 0 0 0 4 8 A 4 4 0 0 0 4.1464844 9.0703125 L 3.1699219 9.6347656 L 4.1699219 11.365234 L 5.1464844 10.800781 A 4 4 0 0 0 7 11.867188 L 7 13 L 9 13 L 9 11.869141 A 4 4 0 0 0 10.851562 10.800781 L 11.830078 11.365234 L 12.830078 9.6347656 L 11.851562 9.0703125 A 4 4 0 0 0 12 8 A 4 4 0 0 0 11.853516 6.9296875 L 12.830078 6.3652344 L 11.830078 4.6347656 L 10.853516 5.1992188 A 4 4 0 0 0 9 4.1328125 L 9 3 L 7 3 z M 8 6 A 2 2 0 0 1 10 8 A 2 2 0 0 1 8 10 A 2 2 0 0 1 6 8 A 2 2 0 0 1 8 6 z "/>
</svg>
